<?xml version="1.0"?>
<svg width="100" height="100" xmlns="http://www.w3.org/2000/svg" xmlns:svg="http://www.w3.org/2000/svg">
 <g>
  <title>Layer 1</title>
  <path id="Tumblr" d="m57.896999,78.557999c-1.513,-0.888 -2.902,-2.416 -3.456001,-3.889c-0.559998,-1.484001 -0.488998,-4.489998 -0.488998,-9.712997l0,-23.078003l20.988003,0l0,-16.062998l-20.987003,0l0,-20.815l-12.912998,0c-0.576,4.636 -1.637001,8.466002 -3.175999,11.469998c-1.542,3.008001 -3.576,5.578001 -6.125999,7.726c-2.538,2.144001 -6.674004,3.796001 -10.238001,4.936003l0,12.745996l12.328997,0l0,31.562004c0,4.120003 0.437,7.264 1.306,9.428001c0.873001,2.162003 2.432003,4.210999 4.684002,6.139c2.251999,1.906998 4.971004,3.394997 8.160999,4.441002c3.186001,1.034996 5.636002,1.551994 9.785999,1.551994c3.650002,0 7.049004,-0.367996 10.199997,-1.087997c3.147003,-0.737999 6.661003,-2.009003 10.534004,-3.812004l0,-14.198997c-4.544998,2.963997 -9.115997,4.440002 -13.712997,4.440002c-2.586998,0.000999 -4.874001,-0.594002 -6.890003,-1.783005z" fill="#00F94F"/>
 </g>
</svg>